<svg xmlns="http://www.w3.org/2000/svg" viewBox="0 0 500 500"><defs><style>.cls-1{fill:none;}.cls-2{fill:#ffd5c8;}.cls-3{fill:#fd637b;}.cls-4{fill:#e8b5ad;}.cls-5{fill:#3d6269;}.cls-6{fill:#537980;}.cls-7{fill:#2c0d12;}</style></defs><title>umur_anakanak</title><g id="Layer_2" data-name="Layer 2"><g id="Layer_1-2" data-name="Layer 1"><rect class="cls-1" width="500" height="500"/><path class="cls-2" d="M195.49,456.68a16.19,16.19,0,0,1-13.94-18.17l12.28-93.11,32.11,4.23-12.28,93.11a16.2,16.2,0,0,1-18.17,13.94Z"/><path class="cls-2" d="M304.66,456.68a16.2,16.2,0,0,0,13.94-18.17L306.32,345.4l-32.11,4.23,12.28,93.11a16.19,16.19,0,0,0,18.17,13.94Z"/><path class="cls-2" d="M372.18,288.17A16.2,16.2,0,0,0,363.5,267l-74-31L277,265.9l74,31A16.2,16.2,0,0,0,372.18,288.17Z"/><path class="cls-2" d="M128,288.17A16.2,16.2,0,0,1,136.65,267l74-31,12.51,29.87-74,31a16.21,16.21,0,0,1-21.2-8.68Z"/><path class="cls-3" d="M317.8,323.09V259.48a32.39,32.39,0,0,0-32.39-32.39H214.73a32.39,32.39,0,0,0-32.39,32.39v63.61a181.88,181.88,0,0,1-1.16,20.47c-3.53,31-6.52,54.22-7.66,62.8a47.46,47.46,0,0,1,18.75,3.6,47.43,47.43,0,0,0,19.29,3.6,47.07,47.07,0,0,0,19.22-3.6,53.4,53.4,0,0,1,38.55,0,53.29,53.29,0,0,0,38.51,0,47.6,47.6,0,0,1,18.78-3.6c-1.14-8.58-4.12-31.76-7.66-62.8a181.88,181.88,0,0,1-1.16-20.47Z"/><path class="cls-4" d="M228.48,193h43.19v32.84a21.6,21.6,0,0,1-21.6,21.59h0a21.59,21.59,0,0,1-21.59-21.59h0V193Z"/><path class="cls-5" d="M313.05,96.14C341.52,94.68,370.32,107,370.32,107l-8.74,36.47c-29.72-22.77-48.06-28.87-48.06-28.87Z"/><path class="cls-5" d="M187.09,96.14C158.63,94.68,129.83,107,129.83,107l8.74,36.47c29.71-22.77,48.05-28.87,48.05-28.87Z"/><circle class="cls-2" cx="250.02" cy="124.71" r="81.76"/><path class="cls-6" d="M331.84,124.71s-55.46-4.17-81.77-32.28c-26.31,28.11-81.77,32.28-81.77,32.28a81.77,81.77,0,0,1,163.54,0Z"/><path d="M366,261.17l-46.15-19.31a38.7,38.7,0,0,0-34.4-21.06H278V208.21a88.27,88.27,0,0,0,59.64-73.88c6.53,4.13,13.26,8.83,20.13,14.12a6.29,6.29,0,0,0,10-3.52l8.78-36.48a6.28,6.28,0,0,0-3.67-7.27,165.1,165.1,0,0,0-41.58-10.64,88.06,88.06,0,0,0-162.31,0,164.84,164.84,0,0,0-41.56,10.64,6.29,6.29,0,0,0-3.68,7.27l8.78,36.49a6.32,6.32,0,0,0,4,4.47,6.29,6.29,0,0,0,5.94-.95q10.31-7.92,20.12-14.11a88.3,88.3,0,0,0,59.64,73.88v12.59h-7.45a38.72,38.72,0,0,0-34.4,21.06l-46.14,19.29a22.49,22.49,0,1,0,17.11,41.6l.28-.11L176,292.42v30.67a176.32,176.32,0,0,1-1.11,19.76c-4.11,36.15-7.3,60.07-7.65,62.68a6.31,6.31,0,0,0,5.41,7.08,6.84,6.84,0,0,0,.79.05,41.08,41.08,0,0,1,16.59,3.21,53.66,53.66,0,0,0,20.25,3.95l-2.91,22.11a9.88,9.88,0,0,1-11.07,8.51h-.05a9.9,9.9,0,0,1-8.5-11.1l.82-6.21a6.3,6.3,0,1,0-12.45-1.89l0,.23-.83,6.23a22.49,22.49,0,0,0,44.53,6.36c0-.16,0-.32.07-.48l3.27-24.76a58.1,58.1,0,0,0,9.82-2.95,47.14,47.14,0,0,1,34.12,0,57.49,57.49,0,0,0,9.87,3l3.27,24.74a22.49,22.49,0,1,0,44.65-5.45l-.06-.43-3.27-24.75c1.52-.15,3.19-.25,5.1-.27a6.28,6.28,0,0,0,6.23-6.36,6.49,6.49,0,0,0,0-.77c-.6-4.46-1.7-12.91-3.12-24.37a6.3,6.3,0,0,0-12.52,1.34l0,.21c.88,7.18,1.64,13.18,2.24,17.77a53.47,53.47,0,0,0-13.91,3.6,47,47,0,0,1-34.06,0,59.71,59.71,0,0,0-43,0,40.83,40.83,0,0,1-17,3.2,41.16,41.16,0,0,1-17.08-3.2,53.77,53.77,0,0,0-13.84-3.6c1.29-9.9,3.8-29.82,6.81-56.22a192,192,0,0,0,1.18-21.17V259.49a26.13,26.13,0,0,1,26.1-26.09h8.53a27.85,27.85,0,0,0,53.63,0h8.53a26.13,26.13,0,0,1,26.1,26.09V318a6.3,6.3,0,1,0,12.59,0V292.42l24.45,10.24A22.5,22.5,0,1,0,366,261.17Zm-56.68,155,3.07,23.17a9.89,9.89,0,1,1-19.61,2.62l-2.92-22.1a52.68,52.68,0,0,0,19.46-3.69ZM146.72,291a9.89,9.89,0,0,1-7.65-18.25l37.08-15.52c0,.74-.11,1.47-.11,2.22v19.27ZM362.93,110.89l-5.25,21.82c-6.72-4.86-13.32-9.16-19.69-12.92a86.1,86.1,0,0,0-2.36-15.89A161.52,161.52,0,0,1,362.93,110.89Zm-225.71,0a161.52,161.52,0,0,1,27.3-7,87,87,0,0,0-2.37,15.89q-9.57,5.64-19.68,12.92Zm37.67,19.43c14.63-1.86,51.9-8.48,75.18-29.15a79,79,0,0,0,6.44,5.12,6.3,6.3,0,0,0,7.34-10.23,61.69,61.69,0,0,1-9.18-8,6.49,6.49,0,0,0-9.16,0l0,0C226.55,108.32,190.3,115.4,175,117.56a75.44,75.44,0,0,1,150.22,0,184.11,184.11,0,0,1-37-9,6.3,6.3,0,0,0-4.36,11.82h0a196.71,196.71,0,0,0,41.44,10,75.39,75.39,0,0,1-150.37,0ZM250.07,241.1a15.25,15.25,0,0,1-15.23-14.36,4.6,4.6,0,0,0-.06-.52v-14.8a86.84,86.84,0,0,0,30.59,0V226.1a4.78,4.78,0,0,0-.07.65,15.26,15.26,0,0,1-15.23,14.35Zm116.3,44.63a9.91,9.91,0,0,1-12.95,5.3L324.1,278.76V259.49c0-.75-.07-1.48-.11-2.22l37.07,15.52a9.9,9.9,0,0,1,5.31,12.95Z"/><path class="cls-7" d="M318.24,337.3a6.3,6.3,0,0,0-5.54,7h0c.66,5.83,1.31,11.39,1.92,16.63a6.31,6.31,0,0,0,6.25,5.58,6,6,0,0,0,.74,0,6.3,6.3,0,0,0,5.52-7c-.61-5.23-1.26-10.78-1.92-16.59a6.31,6.31,0,0,0-7-5.57Z"/><path class="cls-7" d="M274.52,171.38a6.3,6.3,0,0,0-12.07-3.6c-1.78,6-8.61,7.56-12.38,7.56s-10.6-1.58-12.37-7.56a6.3,6.3,0,0,0-12.08,3.6c3.4,11.43,14.74,16.56,24.45,16.56S271.12,182.81,274.52,171.38Z"/><path class="cls-7" d="M270.89,143.36a6.29,6.29,0,0,0,8.58-2.33h0a4.16,4.16,0,0,1,5.58-1.89A4.07,4.07,0,0,1,287,141,6.3,6.3,0,0,0,298,135a2.12,2.12,0,0,0-.11-.21,16.74,16.74,0,0,0-29.34,0,6.28,6.28,0,0,0,2.34,8.58Z"/><path class="cls-7" d="M229.26,143.36a6.3,6.3,0,0,0,2.34-8.59h0a16.75,16.75,0,0,0-29.34,0,6.3,6.3,0,1,0,10.82,6.45,1.28,1.28,0,0,0,.11-.2,4.17,4.17,0,0,1,5.58-1.89,4.12,4.12,0,0,1,1.89,1.89,6.29,6.29,0,0,0,8.58,2.35h0Z"/></g></g></svg>