<svg xmlns="http://www.w3.org/2000/svg" viewBox="0 0 500 500"><defs><style>.cls-1{fill:none;}.cls-2{fill:#f5d7b7;}.cls-3,.cls-8{opacity:0.1;}.cls-3,.cls-6{isolation:isolate;}.cls-4{fill:#38648c;}.cls-5{fill:#f28b74;}.cls-6{opacity:0.05;}.cls-7{fill:#76b7eb;}</style></defs><title>umur_balita</title><g id="Layer_2" data-name="Layer 2"><g id="Layer_1-2" data-name="Layer 1"><rect class="cls-1" width="500" height="500"/><circle class="cls-2" cx="248.72" cy="122.88" r="34.38"/><circle class="cls-3" cx="248.72" cy="122.88" r="34.38"/><circle class="cls-2" cx="377.56" cy="251.72" r="34.38"/><circle class="cls-3" cx="377.56" cy="251.72" r="34.38"/><circle class="cls-4" cx="140.67" cy="359.77" r="66.22"/><path class="cls-3" d="M187.5,406.6A66.23,66.23,0,1,0,75.3,349.19c5.4,3.84,12.93,7.55,23.14,11.5,8.62,3.34,19.16,6.8,31.08,10.23,3.43,11.93,6.89,22.46,10.23,31.08,3.95,10.21,7.66,17.75,11.5,23.13A65.86,65.86,0,0,0,187.5,406.6Z"/><ellipse class="cls-2" cx="310.8" cy="189.63" rx="101.5" ry="99.28" transform="translate(-43.06 275.31) rotate(-45)"/><ellipse class="cls-5" cx="268.19" cy="154.82" rx="16.09" ry="20.2" transform="translate(-30.92 234.98) rotate(-45)"/><ellipse class="cls-5" cx="345.63" cy="232.24" rx="16.09" ry="20.2" transform="translate(-62.99 312.42) rotate(-45)"/><path class="cls-6" d="M283.84,93.53a102.84,102.84,0,0,0-43.23,25.9c-39.64,39.64-40.34,103.2-1.57,142A98.33,98.33,0,0,0,322,289.13C258.71,268.12,239.33,162.47,283.84,93.53Z"/><path class="cls-7" d="M160.26,234.09c40.41.48,131.76,10.11,184.35,37.56a18.27,18.27,0,0,1,8.66,22.66c-8.24,22-30,54.44-49.93,74a50.26,50.26,0,0,1-38,14.22c-55.58-3.16-178.21-31.39-187.15-49.68-9.07-18.59,19.44-66.4,53.51-90.09A49,49,0,0,1,160.26,234.09Z"/><path class="cls-3" d="M160.26,234.09c40.41.48,131.76,10.11,184.35,37.56a18.27,18.27,0,0,1,8.66,22.66c-8.24,22-30,54.44-49.93,74a50.26,50.26,0,0,1-38,14.22c-55.58-3.16-178.21-31.39-187.15-49.68-9.07-18.59,19.44-66.4,53.51-90.09A49,49,0,0,1,160.26,234.09Z"/><path class="cls-3" d="M131.71,242.74a143.68,143.68,0,0,0-24.56,22.07,808.39,808.39,0,0,0,16.61,84.7q.73,2.94,1.49,5.8c42.78,13.1,104.15,25,139.4,27.16q2.27-2.93,4.34-5.89A62.33,62.33,0,0,0,280.1,340c-.21-17.58-2.54-53.86-9.37-92.87-42.21-9.07-85.82-12.76-110.48-13.06A49,49,0,0,0,131.71,242.74Z"/><path class="cls-7" d="M266.35,340.18c-.49-40.41-10.11-131.76-37.56-184.35a18.29,18.29,0,0,0-22.66-8.67c-22,8.25-54.44,30-74,49.94a50.22,50.22,0,0,0-14.22,38c3.16,55.58,31.39,178.21,49.68,187.15,18.59,9.07,66.4-19.44,90.09-53.51A49,49,0,0,0,266.35,340.18Z"/><g class="cls-8"><path d="M150.45,301.38a5.1,5.1,0,0,1-5-4.1c-.42-2.1-2.39-15-2.39-17.5a5.1,5.1,0,0,1,10.19,0c.05,1.64,1.7,13.06,2.19,15.54a5.1,5.1,0,0,1-4,6A4.85,4.85,0,0,1,150.45,301.38Zm2.81-21.6Z"/><path d="M204.26,211.54a5.09,5.09,0,0,1-4.84-6.72c.37-1.09,1.35-3.16,3.57-7.7.61-1.24,1.18-2.42,1.39-2.88a5.09,5.09,0,0,1,9.28,4.2c-.27.6-.82,1.73-1.52,3.16-1,2-2.76,5.65-3.06,6.47A5.08,5.08,0,0,1,204.26,211.54Z"/><path d="M227.26,307.86a5,5,0,0,1-2.55-.69c-2.42-1.4-9.17-5.26-11.35-6.25a5.09,5.09,0,0,1,4.22-9.27c3,1.38,11.31,6.17,12.24,6.71a5.09,5.09,0,0,1-2.56,9.5Z"/><path d="M193.39,390.77a5.1,5.1,0,0,1-5.1-5.1c0-2.71-.71-13-1-17.91-.11-1.59-.19-2.79-.22-3.32a5.09,5.09,0,1,1,10.16-.6c0,.5.12,1.67.22,3.22.52,7.52,1.08,15.78,1.08,18.61A5.09,5.09,0,0,1,193.39,390.77Z"/><path d="M291,304.62a5.1,5.1,0,0,1-1.69-9.9c1.88-.66,6.32-3.32,9.25-5.08,4.32-2.59,5.76-3.42,7.19-3.71a5.1,5.1,0,0,1,2.52,9.86c-.74.35-2.89,1.64-4.47,2.59-3.87,2.32-8.26,4.95-11.11,5.95A5,5,0,0,1,291,304.62Zm16.76-8.7h0Z"/></g><path d="M349.67,196.83a14.62,14.62,0,0,0-10.4,4.31,5.09,5.09,0,1,0,7.21,7.2,4.52,4.52,0,1,1,6.39,6.4,5.09,5.09,0,0,0,7.21,7.2,14.71,14.71,0,0,0-10.41-25.11ZM299.3,140.36a14.73,14.73,0,0,0-20.8,0,5.09,5.09,0,0,0,7.2,7.21,4.52,4.52,0,0,1,6.4,6.39,5.09,5.09,0,0,0,0,7.2,5.09,5.09,0,0,0,7.2,0A14.73,14.73,0,0,0,299.3,140.36Zm109.27,87a106.59,106.59,0,0,0,7.72-38.74A102.66,102.66,0,0,0,389.71,118a45,45,0,0,1,18.36-10.53,5.09,5.09,0,1,0-2.84-9.78,55.29,55.29,0,0,0-22.73,13.11,102.69,102.69,0,0,0-70.64-26.61,106.59,106.59,0,0,0-38.74,7.72,39.23,39.23,0,0,0-24.4-8.46h-.6a39.47,39.47,0,0,0-34.51,57.51,23.35,23.35,0,0,0-9.27,1.47c-22.79,8.55-56.1,31-75.83,51.14a55.4,55.4,0,0,0-15.67,41.84c.26,4.56.7,9.62,1.28,15.07a166.29,166.29,0,0,0-33.39,43.2c-5.27,10.1-13.21,28.91-7.1,41.41a1,1,0,0,0,.07.15,71.3,71.3,0,0,0,91.52,91.53l.16.08A24.14,24.14,0,0,0,176,429C186,429,199,424.55,213.34,416A169.18,169.18,0,0,0,250,386.32c5.47.59,10.54,1,15.09,1.28,1.05.06,2.1.09,3.14.09a55.36,55.36,0,0,0,38.7-15.76c11.53-11.31,24.17-27.35,34.66-44a5.09,5.09,0,0,0-8.62-5.43c-10.09,16-22.18,31.39-33.17,42.17a45.18,45.18,0,0,1-34.13,12.77c-2.39-.14-4.94-.32-7.62-.56,1.35-1.74,2.65-3.49,3.86-5.23a53.72,53.72,0,0,0,9.56-31.51c-.23-19.41-2.65-52.83-8.74-88.41l-.18-1.06c32.81,6.58,60.27,15.35,79.73,25.51a13.22,13.22,0,0,1,6.26,16.35c-1.13,3-2.56,6.31-4.25,9.8a5.1,5.1,0,0,0,2.37,6.8,5,5,0,0,0,2.21.51,5.1,5.1,0,0,0,4.59-2.88c1.82-3.76,3.37-7.35,4.61-10.65a23.3,23.3,0,0,0,1.47-9.26,39.47,39.47,0,0,0,49.06-59.52ZM228,102.17a29.13,29.13,0,0,1,34.31-5.24,109.85,109.85,0,0,0-40.41,37.77A29.18,29.18,0,0,1,228,102.17ZM97.44,403a61,61,0,0,1-15.63-59.81c7.76,5,23.19,11.94,54.72,20.72,3.75,13.43,7.54,25.22,11.18,34.66s6.86,15.86,9.57,20A61,61,0,0,1,97.44,403Zm156.08-37.18c-10.75,15.45-27.71,31-45.38,41.47-16.56,9.84-31.23,13.82-38.29,10.37a3.1,3.1,0,0,1-.5-.31,5.58,5.58,0,0,0-.6-.49c-4.18-3.82-12.52-19.43-23.11-58.19,0-.16-.08-.31-.13-.46q-1.8-6.61-3.69-14.15a5.09,5.09,0,1,0-9.88,2.47q.75,3,1.51,5.92c-38.66-11.21-47.94-18.58-50.08-21l-.1-.12a3.47,3.47,0,0,1-.49-.7c-5.43-11.11,8-42.09,32.89-67.45,2.43,18,6.17,38.88,10.79,60a5.09,5.09,0,1,0,10-2.18c-7.19-32.84-12.2-65-13.39-86.16a45.11,45.11,0,0,1,12.77-34.13c18.84-19.22,50.53-40.63,72.13-48.74a13.24,13.24,0,0,1,16.36,6.25c8,15.4,18.94,46.59,26.84,86.37a4.68,4.68,0,0,0,.26,1.35,528.45,528.45,0,0,1,9.88,94.34A43.64,43.64,0,0,1,253.52,365.82Zm100.94-92.49a23.47,23.47,0,0,0-7.49-6.19c-21.4-11.18-50.47-20.34-86.42-27.25-5.22-27-13.81-60.68-27.24-86.42a23.5,23.5,0,0,0-6.2-7.49A98.37,98.37,0,0,1,244.21,123c37.59-37.59,98-38.29,134.77-1.57a92.53,92.53,0,0,1,27.13,67,96.6,96.6,0,0,1-7.93,37.3,5.59,5.59,0,0,0-.38.87,99.11,99.11,0,0,1-43.34,46.7Zm43.81-.9a29.18,29.18,0,0,1-32.53,6.1,109.85,109.85,0,0,0,37.77-40.41A29.16,29.16,0,0,1,398.27,272.43Zm-80.07-81.2a8.43,8.43,0,0,1-9-9,5.09,5.09,0,0,0-10.16-.7,18.58,18.58,0,0,0,18.57,19.89c.43,0,.85,0,1.28,0a5.09,5.09,0,1,0-.7-10.16Z"/></g></g></svg>