<svg xmlns="http://www.w3.org/2000/svg" viewBox="0 0 500 500"><defs><style>.cls-1{fill:none;}.cls-2{fill:#0096dc;}.cls-3{fill:#b48764;}.cls-4{fill:#d29b6e;}.cls-5{fill:#f0c087;}.cls-6{fill:#e6af78;}.cls-7{fill:#d5dced;}.cls-8{fill:#00aaf0;}.cls-9{fill:#c7cfe2;}.cls-10{fill:#966d50;}.cls-11{fill:#ffdc64;}.cls-12{fill:#c39772;}.cls-13{fill:#fff;}.cls-14{fill:#ffc850;}</style></defs><title>umur_orangtua</title><g id="Layer_2" data-name="Layer 2"><g id="Layer_1-2" data-name="Layer 1"><rect class="cls-1" width="500" height="500"/><path class="cls-2" d="M240.82,257.15l-35.49-8.87h-100l-35.5,8.87A28.57,28.57,0,0,0,48.2,284.87v142H262.47v-142A28.58,28.58,0,0,0,240.82,257.15Z"/><path class="cls-3" d="M240.82,257.15l-22.47-5.62c-4.37,10.67-21.06,46.18-58.9,72.54a7.33,7.33,0,0,1-8.24,0c-37.84-26.36-54.52-61.87-58.89-72.54l-22.48,5.62A28.57,28.57,0,0,0,48.2,284.87v142H262.47v-142A28.58,28.58,0,0,0,240.82,257.15Z"/><rect class="cls-4" x="119.62" y="212.56" width="71.42" height="42.85"/><path class="cls-5" d="M219.61,141.14V119.72a50,50,0,0,0-50-50H141.05a50,50,0,0,0-50,50v21.42a14.29,14.29,0,0,0,0,28.57,64.28,64.28,0,1,0,128.56,0,14.29,14.29,0,1,0,0-28.57Z"/><path class="cls-6" d="M126.76,169.71v-50A50,50,0,0,1,173.19,69.9c-1.19-.08-2.37-.18-3.57-.18H141.05a50,50,0,0,0-50,50v21.42a14.29,14.29,0,0,0,0,28.57,64.19,64.19,0,0,0,82.14,61.72A64.28,64.28,0,0,1,126.76,169.71Z"/><path class="cls-7" d="M105.34,100.08a14.29,14.29,0,1,0-26.2,7.86A17.87,17.87,0,1,0,97,113,14.25,14.25,0,0,0,105.34,100.08Z"/><path class="cls-7" d="M205.33,100.08a14.29,14.29,0,1,1,28.57,0,14.12,14.12,0,0,1-2.38,7.86A17.85,17.85,0,1,1,213.65,113,14.25,14.25,0,0,1,205.33,100.08Z"/><path class="cls-2" d="M80.59,295,53.72,268.09a28.49,28.49,0,0,0-5.52,16.78v142H91.05V320.21A35.69,35.69,0,0,0,80.59,295Z"/><path class="cls-2" d="M230.07,295l26.87-26.87a28.43,28.43,0,0,1,5.53,16.78v142H219.61V320.21A35.69,35.69,0,0,1,230.07,295Z"/><path class="cls-8" d="M112.48,234l42.85,21.43-15.89,21.19a7.14,7.14,0,0,1-11.29.18l-22.81-28.51Z"/><path class="cls-8" d="M198.19,234l-42.86,21.43,15.9,21.19a7.14,7.14,0,0,0,11.29.18l22.81-28.51Z"/><path class="cls-9" d="M398.17,241.13a21.43,21.43,0,0,1,21.42,21.43c0,.44-.1.84-.13,1.27a21.37,21.37,0,0,1-7,41.58H376.74V262.56A21.43,21.43,0,0,1,398.17,241.13Z"/><path class="cls-9" d="M298.18,241.13a21.43,21.43,0,0,0-21.43,21.43c0,.44.1.84.13,1.27a21.37,21.37,0,0,0,7,41.58H319.6V262.56A21.43,21.43,0,0,0,298.18,241.13Z"/><path class="cls-10" d="M425.71,303.58l-40-16a14.31,14.31,0,0,1-8.34-9l-.64-16H319.6l-.64,16a14.28,14.28,0,0,1-8.34,9l-40,16a35.7,35.7,0,0,0-22.45,33.15v90.1h200v-90.1A35.7,35.7,0,0,0,425.71,303.58Z"/><path class="cls-11" d="M425.71,303.57l-31.25-12.5a60.62,60.62,0,0,1-92.58,0l-31.25,12.5a35.72,35.72,0,0,0-22.45,33.16v90.1h200v-90.1A35.72,35.72,0,0,0,425.71,303.57Z"/><circle class="cls-7" cx="348.17" cy="176.86" r="78.56"/><path class="cls-9" d="M319.6,176.86a78.56,78.56,0,0,1,53.57-74.44,78.57,78.57,0,1,0,0,148.87A78.54,78.54,0,0,1,319.6,176.86Z"/><path class="cls-12" d="M348.17,284h0a64.28,64.28,0,0,1-64.28-64.28v-15a21.49,21.49,0,0,1,10.63-18.46,84.79,84.79,0,0,0,21.11-18.47,6.89,6.89,0,0,1,9.14-1.39c35.79,24.18,87.68,19,87.68,46.2v7.14A64.28,64.28,0,0,1,348.17,284Z"/><path class="cls-3" d="M319.6,219.71V165.42a7,7,0,0,0-4,2.34,84.79,84.79,0,0,1-21.11,18.47,21.49,21.49,0,0,0-10.63,18.46v12.72c0,29.52,19,56.48,47.47,64.29a63.14,63.14,0,0,0,34.67-.28A64.26,64.26,0,0,1,319.6,219.71Z"/><path class="cls-13" d="M376.74,201.85a10.72,10.72,0,1,0,10.71,10.72A10.72,10.72,0,0,0,376.74,201.85Z"/><path class="cls-13" d="M319.6,201.85a10.72,10.72,0,1,0,10.72,10.72A10.72,10.72,0,0,0,319.6,201.85Z"/><path class="cls-14" d="M283.89,348.27,253.6,318a35.55,35.55,0,0,0-5.42,18.76v90.1h35.71Z"/><path class="cls-14" d="M412.45,348.27l30.3-30.3a35.63,35.63,0,0,1,5.41,18.76v90.1H412.45Z"/><path class="cls-14" d="M348.17,341.13a92.63,92.63,0,0,0,75.17-38.5l-28.88-11.56a60.62,60.62,0,0,1-92.58,0L273,302.63A92.63,92.63,0,0,0,348.17,341.13Z"/><path d="M243.9,263.43a6.24,6.24,0,0,0,1.75.26,6,6,0,0,0,1.75-11.81l-39.52-12-4.3-8.6a6,6,0,0,0-7.17-3.06v-1.5A70.33,70.33,0,0,0,225.46,175a20.1,20.1,0,0,0,12.34-29.9,23.81,23.81,0,0,0,1.56-41.39,20.1,20.1,0,0,0,.57-4.78A20.31,20.31,0,0,0,212,80a62.56,62.56,0,0,0-42.39-16.35H141.05A62.75,62.75,0,0,0,98.66,80a20.29,20.29,0,0,0-27.35,23.62A23.81,23.81,0,0,0,72.86,145,20.1,20.1,0,0,0,85.21,175a70.27,70.27,0,0,0,29,51.73v1.53a6,6,0,0,0-7.11,3.08l-4.29,8.59L61.74,252.2a27.29,27.29,0,0,0-19.58,26.3V426.83a6,6,0,1,0,12.08,0V278.5c0-.44,0-.88,0-1.31l24.13,24.12A22.43,22.43,0,0,1,85,317.25V426.83a6,6,0,1,0,12.07,0V317.25A34.35,34.35,0,0,0,87,292.78L60.37,266.2a15.81,15.81,0,0,1,4.83-2.44l27.2-8.16c2.13,6,17.94,47.09,59.59,74.85a6,6,0,0,0,6.69,0c43-28.69,58.39-71.1,59.66-74.77Zm-48.41-21.34,2.71,5.43L177.81,273a1,1,0,0,1-.89.41,1.05,1.05,0,0,1-.86-.44L164.5,257.58ZM227.86,98.88a8.15,8.15,0,0,1-1.37,4.53,6,6,0,0,0,3.41,9.15,11.83,11.83,0,1,1-11.8,3.35,6,6,0,0,0-1.92-9.57,8.23,8.23,0,1,1,11.68-7.46ZM80.76,112.56a6,6,0,0,0,3.42-9.15,8.16,8.16,0,0,1-1.38-4.53,8.25,8.25,0,1,1,11.68,7.46,6,6,0,0,0-1.91,9.57,11.82,11.82,0,1,1-11.81-3.35Zm16.33,57.15a6,6,0,0,0-6-6c-4.44,0-8.26-2.93-8.89-6.82a8.22,8.22,0,0,1,6.3-9.48,5.31,5.31,0,0,0,.68-.2,23.92,23.92,0,0,0,18.66-23.3,23.52,23.52,0,0,0-2.5-10.57,20.23,20.23,0,0,0,2.79-25.49,50.8,50.8,0,0,1,33-12.06h28.57a50.61,50.61,0,0,1,33,12,20.2,20.2,0,0,0,2.77,25.5,23.65,23.65,0,0,0-2.5,10.57,23.92,23.92,0,0,0,19.31,23.44,4.3,4.3,0,0,0,.57.2,8.24,8.24,0,0,1,5.77,9.34c-.63,3.89-4.46,6.82-8.9,6.82a6,6,0,0,0-6,6,58.25,58.25,0,1,1-116.49,0ZM155.33,240a70,70,0,0,0,29-6.27v.41l-29,14.5-29.07-14.53v-.41A70,70,0,0,0,155.33,240Zm-42.06,5.88,1.91-3.82,31,15.49L134.61,273a1.06,1.06,0,0,1-.87.44,1,1,0,0,1-.88-.41l-20.24-25.29A6.19,6.19,0,0,0,113.27,245.91Zm42.06,72.2c-27-19.21-41.56-44.34-47.74-57.36l15.84,19.81a13.11,13.11,0,0,0,10.29,4.95h.21a13.07,13.07,0,0,0,10.34-5.27l5-6.7v24.74a6,6,0,1,0,12.07,0V273.53l5,6.7a13.05,13.05,0,0,0,10.33,5.27H177a13.09,13.09,0,0,0,10.28-4.95l15.89-19.87C197,273.67,182.49,298.81,155.33,318.11Z"/><path d="M174.3,194.94a6,6,0,1,0-9.37-7.6,11.83,11.83,0,0,1-19.19,0,6,6,0,0,0-9.38,7.6,23.87,23.87,0,0,0,37.94,0Z"/><path d="M126.76,149.39a6,6,0,0,0-6,6v7.14a6,6,0,1,0,12.07,0v-7.14A6,6,0,0,0,126.76,149.39Z"/><path d="M183.9,168.61a6,6,0,0,0,6-6v-7.14a6,6,0,1,0-12.07,0v7.14A6,6,0,0,0,183.9,168.61Z"/><path d="M245.31,279.72a6,6,0,0,0-8.54,0l-13.06,13.06a34.39,34.39,0,0,0-10.13,24.47V426.83a6,6,0,1,0,12.07,0V317.25a22.35,22.35,0,0,1,6.6-15.93l13.06-13.06A6.05,6.05,0,0,0,245.31,279.72Z"/><path d="M348.17,254.31a24.52,24.52,0,0,0,19-9.37,6,6,0,1,0-9.37-7.61,11.83,11.83,0,0,1-19.19,0,6,6,0,0,0-9.38,7.61A24.53,24.53,0,0,0,348.17,254.31Z"/><path d="M283.89,342.23a6,6,0,0,0-6,6v78.56a6,6,0,1,0,12.07,0V348.27A6,6,0,0,0,283.89,342.23Z"/><path d="M412.45,342.23a6,6,0,0,0-6,6v78.56a6,6,0,1,0,12.07,0V348.27A6,6,0,0,0,412.45,342.23Z"/><path d="M434,301a27.37,27.37,0,0,0-8.41-41c0-.33,0-.66,0-1a23.85,23.85,0,0,0-10-19.45c.41-1.39.79-2.79,1.11-4.21a67.48,67.48,0,0,0,1.52-11.08,84.6,84.6,0,1,0-140.18,0,68.42,68.42,0,0,0,1.52,11.08c.32,1.42.7,2.82,1.11,4.21a23.84,23.84,0,0,0-10,19.45q0,.5,0,1a27.36,27.36,0,0,0-8.42,41,41.49,41.49,0,0,0-20.17,35.74v90.1a6,6,0,1,0,12.07,0v-90.1a29.53,29.53,0,0,1,18.65-27.55l1.16-.46c17.85,24.13,45.35,38.44,74.14,38.44,29.19,0,56.09-14,74.14-38.44l1.16.46a29.53,29.53,0,0,1,18.66,27.55v90.1a6,6,0,1,0,12.07,0v-90.1A41.5,41.5,0,0,0,434,301Zm-20.46-42a11.72,11.72,0,0,1-.49,3.08,6,6,0,0,0,4,7.34,15.3,15.3,0,0,1,5.31,26.33L388,282a8.27,8.27,0,0,1-3.16-2.26,68.66,68.66,0,0,0,7.54-5.3,70.7,70.7,0,0,0,18.54-22.92A11.77,11.77,0,0,1,413.56,259Zm-91.05,26.16a70,70,0,0,0,51.32,0,20.26,20.26,0,0,0,9,7.77,51.07,51.07,0,0,1-69.4,0A20.21,20.21,0,0,0,322.51,285.15ZM275.64,176.86a72.53,72.53,0,1,1,139,29.19c-8.7-18.72-28-24-46.83-29.05-15.2-4.11-30.92-8.37-44.39-19.14a6,6,0,0,0-5.06-1.18,6,6,0,0,0-4.11,3.19c-.06.13-6.38,12.56-18.72,18.73a6,6,0,0,0,5.39,10.8c9.83-4.92,16.6-12.72,20.41-18.12,14.06,9.45,29.51,13.63,43.33,17.37,4.53,1.23,8.71,2.39,12.52,3.61h-.39A20.34,20.34,0,0,0,359.36,202,25,25,0,0,0,337,202a20.33,20.33,0,1,0,2.81,12.78,12.13,12.13,0,0,1,16.76,0,20.32,20.32,0,1,0,34-17.13c8.63,4.71,13.94,11.27,15.91,22.87a5.72,5.72,0,0,0-.18,1.26A57,57,0,0,1,384.75,265a58.24,58.24,0,0,1-73.16,0,57,57,0,0,1-21.54-43.2,6,6,0,0,0-1.79-4.08A72,72,0,0,1,275.64,176.86ZM385,212.57a8.25,8.25,0,1,1-8.25-8.25A8.26,8.26,0,0,1,385,212.57Zm-65.39,8.24a8.25,8.25,0,1,1,8.25-8.24A8.26,8.26,0,0,1,319.6,220.81Zm-40.33,48.6a6,6,0,0,0,4-7.34,11.66,11.66,0,0,1-.48-3.08,11.82,11.82,0,0,1,2.67-7.49A70.73,70.73,0,0,0,304,274.42a68.66,68.66,0,0,0,7.54,5.3,8.27,8.27,0,0,1-3.16,2.26L274,295.74a15.3,15.3,0,0,1,5.31-26.33Zm68.9,65.68c-24.33,0-46.81-11.24-62.51-31l15.67-6.26a63.17,63.17,0,0,0,93.69,0l15.66,6.27C395,323.85,372.46,335.09,348.17,335.09Z"/></g></g></svg>