<svg xmlns="http://www.w3.org/2000/svg" viewBox="0 0 500 500"><defs><style>.cls-1{fill:none;}.cls-2{fill:#f7d5ad;}.cls-3{fill:#ffe07d;}.cls-4{fill:#fce5be;}.cls-5{fill:#6f6571;}.cls-6{fill:#5d5360;}.cls-7{fill:#faf2f3;}.cls-8{fill:#f0e5e0;}.cls-9{fill:#bc845e;}.cls-10{fill:#d19a6e;}.cls-11{fill:#fc8d94;}.cls-12{fill:#fc7585;}.cls-13{fill:#fff;}</style></defs><title>umur_remaja</title><g id="Layer_2" data-name="Layer 2"><g id="Layer_1-2" data-name="Layer 1"><rect class="cls-1" width="500" height="500"/><path class="cls-2" d="M122.84,166.42H103A21.76,21.76,0,0,0,81.41,188.2v.17A21.74,21.74,0,0,0,103,210.11h18.41Z"/><path class="cls-3" d="M261.87,302.24a38,38,0,0,1,38,38v103L202,453.25H90.25a4.09,4.09,0,0,1-4.09-4.09V340.23a38,38,0,0,1,38-38Z"/><path class="cls-2" d="M219.13,267.94v34.29a26.12,26.12,0,1,1-52.24,0V267.94Z"/><path class="cls-4" d="M271.37,117.34v83.57a78.36,78.36,0,1,1-156.71,0V117.34Z"/><path class="cls-5" d="M300,122.13c-15.63,13.45-43.19,30.13-83.44,30.13H144.9a8.18,8.18,0,0,0-8.18,8.18v22.91a9.81,9.81,0,0,1-9.81,9.8H114.66V166.42H103A21.12,21.12,0,0,0,95,168V123.39a26.53,26.53,0,0,1,26.65-26.48l0,0a26.25,26.25,0,0,0,20.52-9.6c11.9-14.68,41.15-40.6,98.69-40.6h5.83a14.36,14.36,0,0,1,14.51,14.14,6.63,6.63,0,0,0,9,6.18h0a29.15,29.15,0,0,1,37.58,16.2l.48,1.16C313.24,96.5,309.93,113.61,300,122.13Z"/><path class="cls-6" d="M263.67,66a29.06,29.06,0,0,0-17.93,1h0a6.63,6.63,0,0,1-9-6.18,14.28,14.28,0,0,0-10.39-13.56q7-.57,14.59-.58h5.83a14.36,14.36,0,0,1,14.51,14.14A6.54,6.54,0,0,0,263.67,66Z"/><path class="cls-6" d="M300,122.13c-15.63,13.45-43.19,30.13-83.44,30.13H192.07c40.24,0,67.8-16.68,83.43-30.13,9.89-8.52,13.2-25.63,8.31-37.71l-.49-1.16A29,29,0,0,0,268,67.52a6.47,6.47,0,0,0,2.29-.45h0a29.15,29.15,0,0,1,37.58,16.2l.48,1.16C313.24,96.5,309.93,113.61,300,122.13Z"/><path class="cls-7" d="M240,396.37a38,38,0,0,0-38,38v14.8a4.09,4.09,0,0,0,4.09,4.09H411.65a4.09,4.09,0,0,0,4.09-4.09v-14.8a38,38,0,0,0-38-38Z"/><path class="cls-8" d="M415.74,434.36v14.8a4.09,4.09,0,0,1-4.09,4.09H387.11a4.09,4.09,0,0,0,4.09-4.09v-14.8a38,38,0,0,0-38-38h24.53A38,38,0,0,1,415.74,434.36Z"/><path class="cls-9" d="M335,351.89v44.48a26.12,26.12,0,0,1-52.24,0V351.89Z"/><path class="cls-9" d="M370.92,258.55H397a21.76,21.76,0,0,1,21.59,21.77v.18A21.74,21.74,0,0,1,397,302.24H370.41Z"/><path class="cls-9" d="M261.82,302.24H218.88a21.74,21.74,0,0,1-21.59-21.74v-.17a21.76,21.76,0,0,1,21.59-21.78h44.37Z"/><path class="cls-10" d="M387.24,217.65V293a78.36,78.36,0,1,1-156.71,0V217.65Z"/><path class="cls-9" d="M387.24,209.47v83.58a78.46,78.46,0,0,1-90.63,77.4,78.38,78.38,0,0,0,66.09-77.4V209.47Z"/><path class="cls-11" d="M216.05,189.06A49.07,49.07,0,0,1,265.13,140h87.52a49.07,49.07,0,0,1,49.07,49.07v28.63H216.05Z"/><path class="cls-12" d="M401.72,189.06v28.63H377.18V189.06A49.07,49.07,0,0,0,328.1,140h24.54A49.07,49.07,0,0,1,401.72,189.06Z"/><path class="cls-13" d="M352.85,217.69v-45A32.72,32.72,0,0,0,320.13,140H297.64a32.72,32.72,0,0,0-32.72,32.72v45Z"/><path class="cls-5" d="M401.72,225.87v33.22a20.45,20.45,0,0,0-4.72-.54H381.69a19,19,0,0,1-19-19V225.87Z"/><path class="cls-5" d="M255.1,225.87v13.68a19,19,0,0,1-19,19H218.88a20.17,20.17,0,0,0-2.92.2V225.87Z"/><path class="cls-7" d="M220.14,209.51H397.63A16.36,16.36,0,0,1,414,225.87v5.73a2.45,2.45,0,0,1-2.45,2.45H206.24a2.46,2.46,0,0,1-2.46-2.45v-5.73A16.37,16.37,0,0,1,220.14,209.51Z"/><path class="cls-8" d="M414,225.87v5.73a2.46,2.46,0,0,1-2.46,2.45H387a2.46,2.46,0,0,0,2.46-2.45v-5.73a16.35,16.35,0,0,0-16.36-16.36h24.54A16.35,16.35,0,0,1,414,225.87Z"/><path d="M163.53,199.19V188.74a6.14,6.14,0,1,0-12.27,0v10.45a6.14,6.14,0,0,0,12.27,0Z"/><path d="M392,308.37h5a27.83,27.83,0,0,0,27.72-27.87v-.18a28,28,0,0,0-16.86-25.67V240.18h3.68a8.59,8.59,0,0,0,8.58-8.58v-5.73a22.51,22.51,0,0,0-12.26-20V189.06a55.28,55.28,0,0,0-55.21-55.21H295q4.68-3.33,9-7.08c11.68-10,16.07-29.67,10-44.7L313.54,81a35.43,35.43,0,0,0-45.49-19.61c-.49.2-.67-.29-.68-.68a20.59,20.59,0,0,0-20.65-20H240.9c-59.77,0-90.47,26.86-103.46,42.87a20,20,0,0,1-15.1,7.33,6.51,6.51,0,0,0-.77,0,32.67,32.67,0,0,0-32.7,32.62V164.2a28,28,0,0,0-13.59,24v.17A27.83,27.83,0,0,0,103,216.24h6.89A84.77,84.77,0,0,0,160.76,279V296.1H124.15A44.18,44.18,0,0,0,80,340.23a6.14,6.14,0,0,0,12.27,0,31.89,31.89,0,0,1,31.85-31.86h37.19A32.29,32.29,0,0,0,193,334.49h.08a32.32,32.32,0,0,0,31.58-26.12h1.12a84.8,84.8,0,0,0,50.84,62.76v19.1H240a44.18,44.18,0,0,0-44.13,44.13v12.76H92.3V368.86a6.14,6.14,0,1,0-12.27,0v80.3a10.23,10.23,0,0,0,10.22,10.23H358.4a6.14,6.14,0,1,0,0-12.27H208.17V434.36A31.89,31.89,0,0,1,240,402.5h37.19a32.27,32.27,0,0,0,31.67,26.12H309a32.32,32.32,0,0,0,31.59-26.12h37.2a31.89,31.89,0,0,1,31.85,31.86v12.76H387a6.14,6.14,0,0,0,0,12.27h24.62a10.23,10.23,0,0,0,10.22-10.23v-14.8a44.18,44.18,0,0,0-44.12-44.13H341.14v-19.1A84.76,84.76,0,0,0,392,308.37Zm20.47-28.05v.18A15.54,15.54,0,0,1,397,296.1h-3.68c0-1,.06-2,.06-3.06V264.68H397A15.57,15.57,0,0,1,412.45,280.32Zm-16.86-27.91h-13.9a12.86,12.86,0,0,1-12.83-12.23h26.73v12.23Zm12.27-24.49H209.92v-2a10.23,10.23,0,0,1,10.22-10.22H397.63a10.23,10.23,0,0,1,10.23,10.22ZM219.28,296.1h-.4a15.55,15.55,0,0,1-15.46-15.6v-.18a15.57,15.57,0,0,1,15.46-15.64h5.52V293q0,1.54.06,3.06Zm16.83-43.69h-14V240.18h26.85a12.83,12.83,0,0,1-12.83,12.23Zm84-106.29a26.62,26.62,0,0,1,26.59,26.59v30.67H271.06V172.71a26.61,26.61,0,0,1,26.58-26.59Zm-50.78,0a38.72,38.72,0,0,0-10.56,26.59v30.67h-36.6V189.06a43,43,0,0,1,42.94-42.94Zm126.24,42.94v14.32H359V172.71a38.71,38.71,0,0,0-10.55-26.59h4.22A43,43,0,0,1,395.59,189.06ZM101.14,123.39A20.38,20.38,0,0,1,121,103.05a6.62,6.62,0,0,0,.77,0A32.23,32.23,0,0,0,147,91.21c11.61-14.32,39.25-38.33,93.93-38.33h5.82a8.2,8.2,0,0,1,8.38,8.19c0,.15,0,.29,0,.43A12.76,12.76,0,0,0,272.5,72.78a1,1,0,0,0,.22-.09,23.13,23.13,0,0,1,29.47,12.92l.46,1.11c4.09,10.07,1.06,24.15-6.61,30.75a116.29,116.29,0,0,1-23.66,15.78,7.08,7.08,0,0,0-1,.6h-6.29a54.93,54.93,0,0,0-33.93,11.7,6.23,6.23,0,0,0-1.56-.05c-4.26.41-8.65.62-13,.62H144.9a14.33,14.33,0,0,0-14.32,14.32V183a4.06,4.06,0,0,1-4,4h-5.81v-20.6a6.13,6.13,0,0,0-6.13-6.14H103c-.62,0-1.24,0-1.86.07ZM103,204a15.54,15.54,0,0,1-15.45-15.6v-.17A15.57,15.57,0,0,1,103,172.55h5.49v28.36c0,1,0,2.05.06,3.06Zm17.76-3.06v-1.62h5.81A16.3,16.3,0,0,0,142.85,183V160.44a2.08,2.08,0,0,1,2.05-2.05h71.71l2.66,0a54.91,54.91,0,0,0-9.35,30.7v16.79a22.5,22.5,0,0,0-12.27,20v5.56a33.57,33.57,0,0,1-26.54-7.85,6.13,6.13,0,0,0-7.94,9.35A46,46,0,0,0,193,244.05a45.15,45.15,0,0,0,16.83-3.27V254a28,28,0,0,0-17.73,19.18,72.31,72.31,0,0,1-71.33-72.22Zm72.3,121.31H193a20,20,0,0,1-20-20V283a84.07,84.07,0,0,0,18.56,2.37,27.9,27.9,0,0,0,20.68,22.18,20,20,0,0,1-19.21,14.65ZM236.66,293V264.67a25.1,25.1,0,0,0,24.56-24.48h95.35a25.16,25.16,0,0,0,24.54,24.48V293a72.23,72.23,0,1,1-144.45,0Zm92.21,103.33a20,20,0,0,1-40,0V375.14a84.41,84.41,0,0,0,40,0v21.23Z"/><path d="M339.45,316.44a6.13,6.13,0,0,0-8.64-.75,33.43,33.43,0,0,1-43.82,0,6.13,6.13,0,1,0-7.94,9.35,45.51,45.51,0,0,0,59.66,0,6.13,6.13,0,0,0,.74-8.64Z"/><path d="M344.5,297.45a6.14,6.14,0,0,0,6.14-6.13V280.87a6.14,6.14,0,1,0-12.27,0v10.45A6.14,6.14,0,0,0,344.5,297.45Z"/><path d="M279.4,291.32V280.87a6.13,6.13,0,1,0-12.26,0v10.45a6.13,6.13,0,0,0,12.26,0Z"/></g></g></svg>